<?xml version="1.0" standalone="no"?>
<!DOCTYPE svg PUBLIC "-//W3C//DTD SVG 20010904//EN"
 "http://www.w3.org/TR/2001/REC-SVG-20010904/DTD/svg10.dtd">
<svg version="1.0" xmlns="http://www.w3.org/2000/svg"
 width="300.000000pt" height="300.000000pt" viewBox="0 0 300.000000 300.000000"
 preserveAspectRatio="xMidYMid meet">
<metadata>
Created by potrace 1.10, written by Peter Selinger 2001-2011
</metadata>
<g transform="translate(0.000000,300.000000) scale(0.100000,-0.100000)"
fill="#000000" stroke="none">
<path d="M738 2570 c2 -16 8 -30 13 -30 5 0 9 -29 9 -64 0 -54 3 -64 19 -69
16 -4 19 -11 14 -46 -5 -33 -3 -41 11 -41 10 0 16 -9 16 -25 0 -16 6 -25 15
-25 12 0 15 -14 15 -65 0 -37 4 -65 10 -65 6 0 10 -20 10 -45 0 -33 4 -45 15
-45 11 0 15 -11 15 -40 0 -22 -5 -40 -11 -40 -14 0 -39 -25 -39 -39 0 -6 -7
-11 -15 -11 -8 0 -15 -7 -15 -15 0 -8 -7 -15 -15 -15 -9 0 -12 6 -9 15 4 10 0
15 -15 15 -17 0 -21 -6 -21 -30 0 -24 4 -30 21 -30 12 0 19 -5 16 -12 -2 -7
-11 -12 -21 -10 -12 2 -16 -5 -16 -28 0 -16 -4 -30 -10 -30 -6 0 -10 -33 -10
-80 0 -47 4 -80 10 -80 6 0 10 -18 10 -40 0 -34 3 -40 21 -40 18 0 20 4 15 25
-5 18 -2 25 9 25 12 0 15 -15 15 -80 0 -64 -3 -80 -15 -80 -8 0 -15 -7 -15
-15 0 -8 7 -15 15 -15 12 0 15 -13 15 -55 l0 -55 -135 0 c-83 0 -135 -4 -135
-10 0 -5 14 -10 30 -10 20 0 30 -5 30 -15 0 -9 9 -15 25 -15 16 0 25 -6 25
-15 0 -11 11 -15 40 -15 29 0 40 -4 40 -15 0 -12 -16 -15 -80 -15 -47 0 -80
-4 -80 -10 0 -5 -7 -10 -15 -10 -8 0 -15 5 -15 10 0 14 -27 12 -34 -2 -5 -10
-7 -10 -12 0 -3 6 -12 12 -20 12 -8 0 -14 7 -14 15 0 8 7 15 15 15 10 0 15 10
15 30 0 20 -5 30 -15 30 -9 0 -15 9 -15 25 0 21 -5 25 -30 25 -20 0 -30 -5
-30 -15 0 -11 -11 -15 -42 -15 l-43 0 3 -55 4 -55 39 0 c21 0 39 -4 39 -10 0
-5 14 -10 30 -10 21 0 30 -5 30 -16 0 -14 8 -15 55 -9 51 6 55 5 55 -14 0 -17
-6 -21 -30 -21 -20 0 -30 -5 -30 -15 0 -11 8 -13 30 -8 28 5 30 4 30 -26 0
-22 5 -31 16 -31 14 0 16 -9 12 -51 -4 -38 -2 -52 9 -56 10 -4 12 -14 9 -29
-5 -19 -2 -24 14 -24 18 0 20 -6 20 -80 0 -47 4 -80 10 -80 6 0 10 -18 10 -40
0 -30 5 -42 18 -47 22 -9 42 -29 42 -42 0 -6 14 -11 31 -11 24 0 30 4 25 15
-3 9 0 15 9 15 8 0 15 5 15 10 0 6 11 10 25 10 14 0 25 -4 25 -10 0 -5 -4 -10
-10 -10 -5 0 -10 -7 -10 -15 0 -8 -7 -15 -15 -15 -8 0 -15 -7 -15 -15 0 -8 7
-15 15 -15 8 0 15 -7 15 -15 0 -8 5 -15 10 -15 6 0 10 7 10 15 0 8 -4 15 -10
15 -5 0 -10 7 -10 15 0 21 16 19 25 -3 6 -16 7 -16 19 1 7 9 18 17 25 17 6 0
11 7 11 15 0 8 -7 15 -15 15 -8 0 -15 5 -15 10 0 6 -7 10 -15 10 -8 0 -15 7
-15 15 0 8 7 15 15 15 8 0 15 7 15 15 0 8 7 15 15 15 8 0 15 -7 15 -15 0 -8 5
-15 10 -15 6 0 10 -7 10 -15 0 -8 7 -15 15 -15 8 0 15 7 15 15 0 8 -7 15 -15
15 -8 0 -15 7 -15 15 0 8 7 15 15 15 8 0 15 7 15 15 0 8 7 15 15 15 9 0 15 9
15 25 0 20 5 25 25 25 14 0 25 -5 25 -11 0 -14 -25 -39 -39 -39 -6 0 -11 -7
-11 -15 0 -8 -4 -15 -10 -15 -5 0 -10 -7 -10 -15 0 -8 5 -15 10 -15 14 0 12
-27 -2 -34 -10 -5 -10 -7 0 -12 17 -8 15 -34 -3 -34 -8 0 -15 7 -15 15 0 8 -7
15 -15 15 -8 0 -15 -7 -15 -15 0 -8 -4 -15 -10 -15 -5 0 -10 -7 -10 -15 0 -8
-7 -15 -15 -15 -9 0 -15 -9 -15 -25 0 -20 -5 -25 -25 -25 -16 0 -25 -6 -25
-15 0 -8 -7 -15 -15 -15 -8 0 -15 -7 -15 -16 0 -8 -4 -13 -9 -9 -5 3 -12 1
-16 -5 -4 -6 4 -10 19 -10 35 0 56 10 56 26 0 9 11 14 30 14 17 0 30 5 30 11
0 15 26 39 43 39 8 0 14 8 13 18 -1 13 5 16 27 14 19 -2 27 2 27 13 0 8 5 15
10 15 6 0 10 7 10 15 0 8 7 15 15 15 8 0 15 5 15 10 0 6 7 10 15 10 8 0 15 7
15 15 0 8 7 15 15 15 8 0 15 7 15 15 0 8 5 15 10 15 6 0 10 7 10 15 0 8 7 15
15 15 8 0 15 6 15 14 0 10 9 14 28 12 l27 -3 3 -157 c4 -231 22 -199 22 40 0
203 4 224 44 224 11 0 16 9 16 30 0 30 1 30 55 30 30 0 55 5 55 10 0 6 18 10
40 10 29 0 40 4 40 15 0 8 5 15 10 15 6 0 10 7 10 16 0 12 7 14 30 9 26 -6 30
-4 30 14 0 15 6 21 24 21 17 0 25 7 28 25 4 19 1 25 -13 25 -11 0 -19 -7 -19
-16 0 -10 -7 -14 -22 -12 -14 2 -22 -2 -20 -10 1 -7 -9 -12 -27 -12 -21 0 -30
-6 -34 -21 -3 -12 -10 -18 -16 -14 -6 3 -11 -1 -11 -9 0 -12 -10 -16 -39 -16
-25 0 -41 -5 -45 -15 -3 -8 -17 -15 -31 -15 -16 0 -25 6 -25 15 0 8 7 15 15
15 8 0 15 7 15 15 0 8 7 15 15 15 11 0 15 8 13 27 -2 22 1 27 15 25 13 -2 17
4 17 28 0 18 5 30 13 30 7 0 13 12 12 28 0 16 5 26 13 25 6 -2 12 4 12 12 0 8
7 15 15 15 8 0 15 5 15 10 0 6 18 10 40 10 22 0 40 -4 40 -10 0 -5 18 -10 40
-10 22 0 40 5 40 10 0 6 7 10 15 10 8 0 15 -4 15 -10 0 -5 -7 -10 -15 -10 -8
0 -15 -7 -15 -16 0 -10 6 -14 15 -10 10 3 15 -1 15 -13 0 -11 6 -22 13 -25 10
-5 10 -7 0 -12 -15 -7 -18 -64 -3 -64 6 0 10 7 10 15 0 8 7 15 15 15 8 0 15
-7 15 -15 0 -8 7 -15 15 -15 8 0 15 -4 15 -10 0 -5 11 -10 25 -10 18 0 25 -5
25 -20 0 -11 5 -20 11 -20 14 0 39 -25 39 -39 0 -6 9 -11 20 -11 11 0 20 -4
20 -10 0 -5 11 -10 25 -10 16 0 25 -6 25 -15 0 -8 5 -15 10 -15 6 0 10 -7 10
-15 0 -8 7 -15 15 -15 8 0 15 -4 15 -10 0 -5 7 -10 15 -10 10 0 15 -10 15 -30
0 -20 -5 -30 -15 -30 -8 0 -15 -5 -15 -11 0 -14 -25 -39 -39 -39 -17 0 -13 9
14 34 28 26 32 46 10 46 -8 0 -15 -7 -15 -15 0 -8 -4 -15 -10 -15 -5 0 -10 -6
-10 -14 0 -7 -10 -17 -22 -21 l-23 -8 23 -4 c12 -2 22 -11 22 -19 0 -8 10 -14
25 -14 16 0 25 -6 25 -15 0 -9 9 -15 25 -15 16 0 25 -6 25 -15 0 -8 7 -15 16
-15 18 0 44 -23 44 -39 0 -17 47 -13 54 4 4 11 -2 15 -24 15 -28 0 -30 2 -30
40 0 22 5 40 10 40 6 0 10 -7 10 -15 0 -8 7 -15 15 -15 8 0 15 -7 15 -15 0 -8
7 -15 15 -15 8 0 15 7 15 15 0 8 7 15 15 15 8 0 15 -6 15 -14 0 -8 6 -17 13
-20 10 -5 10 -7 0 -12 -7 -3 -13 -12 -13 -20 0 -9 -11 -14 -30 -14 -20 0 -30
-5 -30 -15 0 -10 10 -15 30 -15 17 0 30 -5 30 -11 0 -19 28 -39 54 -39 16 0
26 -6 26 -15 0 -9 9 -15 25 -15 14 0 25 5 25 11 0 14 -25 39 -39 39 -6 0 -11
7 -11 15 0 8 -7 15 -15 15 -8 0 -15 -7 -15 -15 0 -8 -7 -15 -15 -15 -8 0 -15
7 -15 15 0 8 -4 15 -10 15 -5 0 -10 7 -10 15 0 8 5 15 10 15 6 0 10 -4 10 -10
0 -5 7 -10 15 -10 8 0 15 5 15 10 0 6 7 10 15 10 8 0 15 -4 15 -10 0 -5 7 -10
15 -10 8 0 15 5 15 10 0 6 5 10 10 10 6 0 10 -7 10 -15 0 -8 -4 -15 -10 -15
-5 0 -10 -7 -10 -15 0 -8 5 -15 11 -15 14 0 39 -25 39 -39 0 -6 -7 -11 -15
-11 -8 0 -15 -9 -15 -20 0 -17 7 -20 45 -20 26 0 45 5 45 11 0 6 -7 9 -15 5
-12 -4 -15 3 -15 34 0 29 -4 40 -15 40 -10 0 -15 10 -15 30 0 20 5 30 15 30 8
0 15 7 15 15 0 8 -7 15 -15 15 -8 0 -15 5 -15 10 0 6 -7 10 -15 10 -8 0 -15 7
-15 15 0 8 -4 15 -10 15 -5 0 -10 18 -10 40 0 29 -4 40 -15 40 -8 0 -15 7 -15
15 0 8 7 15 15 15 8 0 15 7 15 15 0 8 -7 15 -15 15 -8 0 -15 7 -15 15 0 8 -7
15 -15 15 -8 0 -15 -9 -15 -20 0 -11 -7 -20 -15 -20 -8 0 -15 -4 -15 -10 0 -5
7 -10 15 -10 8 0 15 -7 15 -15 0 -8 -7 -15 -15 -15 -8 0 -15 7 -15 15 0 8 -4
15 -10 15 -5 0 -10 7 -10 15 0 8 5 15 10 15 6 0 10 7 10 15 0 8 7 15 15 15 8
0 15 5 15 10 0 6 7 10 15 10 8 0 15 7 15 15 0 8 -7 15 -15 15 -8 0 -15 7 -15
15 0 8 -7 15 -15 15 -8 0 -15 5 -15 10 0 6 7 10 15 10 8 0 15 7 15 15 0 8 -7
15 -15 15 -8 0 -15 7 -15 16 0 10 6 14 15 10 10 -4 15 1 15 14 0 11 -5 20 -11
20 -14 0 -39 25 -39 39 0 6 5 11 10 11 14 0 12 27 -2 34 -10 5 -10 7 0 12 6 3
12 15 12 26 0 18 4 20 45 14 37 -6 45 -4 45 8 0 10 9 16 25 16 14 0 25 5 25
10 0 6 14 10 30 10 20 0 30 5 30 15 0 8 -9 15 -20 15 -11 0 -20 7 -20 15 0 8
9 15 20 15 11 0 20 7 20 15 0 8 7 15 15 15 8 0 15 5 15 10 0 6 -13 10 -30 10
-16 0 -30 -4 -30 -10 0 -5 -7 -10 -15 -10 -8 0 -15 -7 -15 -15 0 -8 -7 -15
-15 -15 -9 0 -15 9 -15 25 0 14 -4 25 -10 25 -5 0 -10 7 -10 15 0 8 -7 15 -15
15 -8 0 -15 7 -15 15 0 11 11 15 40 15 29 0 40 -4 40 -15 0 -11 12 -15 45 -15
33 0 45 4 45 15 0 11 -12 15 -45 15 -33 0 -45 4 -45 15 0 12 -16 15 -80 15
-64 0 -80 -3 -80 -15 0 -8 5 -15 10 -15 6 0 10 -7 10 -15 0 -8 7 -15 15 -15 8
0 15 -7 15 -15 0 -12 -16 -15 -80 -15 -47 0 -80 -4 -80 -10 0 -5 5 -10 10 -10
6 0 10 -7 10 -15 0 -8 9 -15 20 -15 11 0 19 -6 18 -12 -2 -8 10 -14 30 -16 20
-2 32 -9 32 -18 0 -11 -18 -14 -90 -14 -73 0 -90 3 -90 15 0 8 -4 15 -10 15
-5 0 -10 14 -10 30 0 20 5 30 15 30 8 0 15 5 15 10 0 6 -12 10 -26 10 -26 0
-54 -20 -54 -39 0 -6 -7 -11 -15 -11 -8 0 -15 7 -15 15 0 8 5 15 10 15 6 0 10
18 10 40 0 29 4 40 15 40 8 0 15 7 15 15 0 8 7 15 15 15 13 0 15 32 15 230 0
198 -2 230 -15 230 -8 0 -15 5 -15 10 0 6 -7 10 -15 10 -8 0 -15 7 -15 15 0
10 10 15 30 15 20 0 30 5 30 15 0 8 5 15 10 15 6 0 10 18 10 40 0 33 3 40 20
40 11 0 20 7 20 15 0 8 5 15 10 15 6 0 10 11 10 25 0 14 5 25 10 25 6 0 10 7
10 15 0 8 8 15 18 15 13 0 18 8 17 28 0 16 5 26 13 25 6 -2 12 4 12 12 0 9 6
12 15 9 11 -5 15 1 15 25 0 17 5 31 10 31 6 0 10 14 10 31 0 24 4 30 15 25 12
-4 15 3 15 29 0 26 3 33 15 29 12 -5 15 3 15 35 0 30 4 41 15 41 8 0 15 7 15
15 0 8 5 15 10 15 6 0 10 18 10 40 0 29 4 40 15 40 10 0 15 10 15 30 0 25 -4
30 -25 30 -16 0 -25 -6 -25 -15 0 -8 -7 -15 -15 -15 -8 0 -15 -7 -15 -15 0 -8
-7 -15 -15 -15 -8 0 -15 -7 -15 -15 0 -8 -5 -15 -11 -15 -14 0 -39 -25 -39
-39 0 -6 -7 -11 -15 -11 -8 0 -15 -7 -15 -15 0 -8 -7 -15 -16 -15 -8 0 -12 -4
-9 -10 3 -5 -3 -10 -14 -10 -17 0 -21 -6 -21 -30 0 -16 -4 -30 -10 -30 -5 0
-10 -7 -10 -15 0 -10 -10 -15 -28 -15 -16 0 -34 -8 -42 -20 -8 -11 -20 -20
-27 -20 -7 0 -13 -9 -13 -20 0 -11 -7 -20 -16 -20 -8 0 -12 -4 -9 -10 3 -5 -1
-10 -9 -10 -9 0 -16 -8 -16 -19 0 -15 -5 -18 -21 -14 -14 4 -25 0 -31 -11 -6
-10 -22 -16 -43 -16 -21 0 -37 6 -43 16 -6 11 -17 15 -31 11 -16 -4 -21 -1
-21 14 0 16 -7 19 -40 19 -25 0 -40 5 -40 13 0 9 -53 12 -230 12 -177 0 -230
-3 -230 -12 0 -8 -13 -13 -30 -13 -24 0 -30 -4 -30 -21 0 -14 -5 -19 -14 -16
-8 3 -17 -1 -20 -9 -7 -19 -46 -18 -46 1 0 9 -6 12 -15 9 -10 -4 -15 0 -15 15
0 12 -6 21 -15 21 -10 0 -15 -10 -15 -31 0 -24 4 -30 15 -25 9 3 15 0 15 -9 0
-8 7 -15 15 -15 8 0 15 -7 15 -15 0 -9 9 -15 25 -15 16 0 25 6 25 15 0 8 7 15
15 15 8 0 15 7 15 16 0 8 5 12 10 9 6 -3 13 0 16 8 3 9 14 12 30 9 19 -3 24 0
24 17 0 21 3 21 220 21 217 0 220 0 220 -21 0 -17 5 -20 21 -16 12 3 22 0 26
-9 3 -9 15 -14 28 -12 28 4 55 -24 55 -56 l0 -26 -95 0 c-80 0 -95 -3 -95 -16
0 -12 -9 -15 -37 -12 -26 2 -37 -1 -36 -9 2 -7 -6 -13 -17 -13 -11 0 -20 -7
-20 -15 0 -8 -4 -15 -10 -15 -5 0 -10 -7 -10 -15 0 -8 -7 -15 -15 -15 -9 0
-15 -9 -15 -25 0 -16 -6 -25 -15 -25 -8 0 -15 -7 -15 -15 0 -8 -4 -15 -10 -15
-5 0 -10 -14 -10 -31 0 -17 -4 -28 -10 -24 -10 6 -50 -29 -50 -45 0 -5 -7 -10
-15 -10 -9 0 -15 -9 -15 -25 0 -16 6 -25 15 -25 8 0 15 -7 15 -15 0 -8 -7 -15
-15 -15 -8 0 -15 -6 -15 -12 0 -10 51 -13 220 -13 169 0 220 3 220 13 0 6 11
12 25 12 16 0 25 -6 25 -15 0 -8 7 -15 15 -15 10 0 15 10 15 30 0 30 -1 30
-55 30 -42 0 -55 -3 -55 -15 0 -13 -21 -15 -126 -15 -96 0 -125 3 -121 13 2 6
17 12 33 12 19 1 29 6 29 15 0 10 -10 15 -30 15 -27 0 -30 3 -27 28 3 19 -1
27 -12 27 -9 0 -16 7 -16 15 0 8 -5 14 -11 12 -6 -1 -14 4 -16 11 -3 6 2 12
11 12 9 0 16 7 16 15 0 8 7 15 15 15 9 0 15 10 15 26 0 29 21 54 44 54 10 0
13 6 10 15 -4 9 0 15 10 15 9 0 16 7 16 15 0 11 11 15 40 15 25 0 40 5 40 13
0 8 23 12 80 12 57 0 80 -4 80 -12 0 -8 13 -13 31 -13 20 0 29 4 26 13 -2 6
-10 11 -16 10 -6 -2 -11 10 -11 27 0 27 3 30 30 30 20 0 30 5 30 15 0 8 5 15
10 15 6 0 10 7 10 15 0 9 6 12 16 8 22 -8 64 17 64 39 0 10 5 18 11 18 16 0
39 26 39 44 0 9 8 16 20 16 11 0 20 5 20 10 0 6 9 10 20 10 11 0 20 5 20 10 0
6 7 10 15 10 8 0 15 9 15 20 0 11 7 20 15 20 8 0 15 5 15 10 0 6 7 10 15 10 8
0 15 7 15 15 0 8 5 15 10 15 6 0 10 7 10 15 0 8 7 15 15 15 8 0 15 -9 15 -20
0 -11 -5 -20 -11 -20 -18 0 -46 -33 -31 -38 14 -4 16 -42 2 -42 -5 0 -10 -7
-10 -15 0 -8 -5 -15 -11 -15 -6 0 -17 -6 -25 -14 -16 -16 -19 -40 -4 -31 6 3
10 -1 10 -9 0 -9 -4 -16 -10 -16 -5 0 -10 -7 -10 -15 0 -9 -8 -19 -17 -22 -23
-9 -63 -49 -63 -63 0 -5 -7 -10 -15 -10 -9 0 -18 -7 -21 -15 -4 -8 -10 -15
-15 -15 -5 0 -9 7 -9 15 0 8 5 15 10 15 6 0 10 7 10 15 0 8 9 15 20 15 22 0
27 15 9 25 -11 8 -49 -27 -49 -45 0 -5 -7 -10 -15 -10 -8 0 -15 -7 -15 -15 0
-8 -7 -15 -15 -15 -8 0 -15 -7 -15 -15 0 -8 7 -15 15 -15 8 0 15 -4 15 -10 0
-5 -7 -10 -15 -10 -8 0 -15 -7 -15 -15 0 -8 -4 -15 -10 -15 -5 0 -10 -7 -10
-15 0 -8 3 -15 8 -15 10 0 42 38 42 50 0 6 7 10 15 10 8 0 15 -7 15 -15 0 -8
-7 -15 -15 -15 -8 0 -15 -7 -15 -15 0 -8 -4 -15 -10 -15 -5 0 -10 -11 -10 -25
0 -16 -6 -25 -15 -25 -11 0 -15 -12 -15 -45 0 -31 4 -44 13 -42 7 1 13 -10 15
-25 2 -20 -1 -28 -12 -28 -11 0 -16 -10 -16 -31 0 -24 -4 -30 -15 -25 -8 3
-15 1 -15 -5 0 -13 -20 -33 -42 -42 -10 -3 -18 -13 -18 -22 0 -8 -4 -15 -10
-15 -5 0 -10 -11 -10 -25 0 -16 -6 -25 -15 -25 -8 0 -15 -7 -15 -16 0 -8 -4
-12 -10 -9 -5 3 -10 -1 -10 -9 0 -9 -7 -16 -15 -16 -10 0 -15 -10 -15 -28 0
-26 -3 -28 -30 -24 -23 3 -30 0 -30 -12 0 -9 7 -16 15 -16 8 0 15 -7 15 -15 0
-18 -26 -20 -34 -2 -5 10 -7 10 -12 0 -7 -15 -34 -17 -34 -3 0 6 -7 10 -15 10
-8 0 -15 -4 -15 -10 0 -5 -7 -10 -15 -10 -8 0 -15 7 -15 15 0 8 7 15 15 15 8
0 15 7 15 15 0 8 7 15 15 15 8 0 15 -7 15 -15 0 -8 7 -15 15 -15 8 0 15 6 15
14 0 8 6 17 13 20 10 5 10 7 0 12 -7 3 -13 12 -13 20 0 9 -11 14 -30 14 -20 0
-30 -5 -30 -15 0 -8 -5 -15 -11 -15 -16 0 -39 -26 -39 -44 0 -9 -7 -16 -16
-16 -8 0 -12 -5 -9 -10 3 -6 -3 -10 -14 -10 -16 0 -21 6 -21 26 0 35 -22 54
-64 54 -33 0 -36 -2 -36 -30 0 -24 -4 -30 -17 -28 -14 2 -17 -3 -15 -24 2 -20
-2 -28 -13 -28 -8 0 -15 -7 -15 -15 0 -8 -7 -15 -15 -15 -9 0 -15 10 -15 26 0
27 -14 46 -43 57 -10 4 -16 11 -13 15 11 18 -35 42 -80 42 -47 0 -74 -16 -74
-44 0 -9 -7 -16 -15 -16 -8 0 -15 -4 -15 -10 0 -5 -7 -10 -15 -10 -8 0 -15 -7
-15 -15 0 -9 -9 -15 -25 -15 -16 0 -25 6 -25 15 0 8 -7 15 -15 15 -8 0 -15 7
-15 15 0 8 -6 14 -12 12 -7 -1 -12 4 -10 11 1 8 -7 16 -18 19 -11 3 -20 9 -20
14 0 5 -11 9 -25 9 -21 0 -25 5 -25 31 0 16 -4 28 -8 25 -12 -7 -42 31 -42 54
0 17 -7 20 -45 20 l-45 0 0 54 c0 46 3 54 21 59 17 5 20 11 17 31 -4 18 -1 26
8 26 8 0 14 11 14 25 0 16 6 25 15 25 8 0 15 7 15 15 0 8 5 15 10 15 6 0 10 7
10 15 0 8 7 15 15 15 8 0 15 7 15 15 0 8 7 15 15 15 11 0 15 11 15 40 0 40 0
40 40 40 29 0 40 -4 40 -15 0 -9 9 -15 25 -15 20 0 25 -5 25 -25 0 -16 6 -25
15 -25 8 0 15 -7 15 -15 0 -8 7 -15 15 -15 11 0 15 -11 15 -43 0 -32 -4 -44
-15 -44 -8 0 -15 6 -15 14 0 7 -7 13 -15 13 -11 0 -15 -11 -15 -40 0 -22 -4
-40 -10 -40 -5 0 -10 -13 -10 -30 0 -31 -9 -35 -45 -20 -18 7 -19 8 -2 15 21
9 23 35 2 35 -8 0 -15 -7 -15 -16 0 -15 -10 -16 -80 -11 -74 5 -80 4 -80 -14
0 -17 8 -19 80 -19 47 0 80 -4 80 -10 0 -6 30 -10 70 -10 l70 0 0 -30 c0 -20
5 -30 15 -30 9 0 15 9 15 21 0 18 5 20 38 17 l37 -3 3 83 c2 68 0 82 -13 82
-8 0 -15 -7 -15 -15 0 -8 -7 -15 -15 -15 -10 0 -15 -10 -15 -29 0 -16 -6 -32
-12 -35 -10 -5 -10 -7 0 -12 14 -7 16 -34 2 -34 -5 0 -10 5 -10 10 0 6 -13 10
-30 10 -29 0 -30 2 -30 45 l0 45 40 0 c36 0 40 3 40 25 0 14 -4 25 -10 25 -5
0 -10 14 -10 30 0 20 -5 30 -15 30 -9 0 -15 9 -15 25 0 16 -6 25 -15 25 -8 0
-15 7 -15 15 0 8 -7 15 -15 15 -8 0 -15 7 -15 15 0 9 -9 15 -25 15 -16 0 -25
6 -25 15 0 12 -10 14 -55 9 l-55 -7 0 47 c0 35 -4 46 -16 46 -13 0 -15 11 -12
67 2 47 -1 68 -9 70 -7 3 -13 13 -13 24 0 10 -7 19 -15 19 -11 0 -15 12 -15
45 0 25 -4 45 -10 45 -6 0 -10 28 -10 65 0 58 -2 65 -20 65 -15 0 -20 7 -20
26 0 33 33 30 38 -4 2 -12 8 -22 13 -22 5 0 9 -7 9 -15 0 -8 5 -15 11 -15 19
0 39 -28 39 -54 0 -16 6 -26 15 -26 8 0 15 -7 15 -15 0 -9 6 -12 15 -9 11 5
15 -1 15 -25 0 -17 5 -31 10 -31 6 0 10 -7 10 -15 0 -8 6 -15 14 -15 8 0 16
-9 18 -20 4 -29 22 -30 26 -2 2 12 -1 22 -6 22 -5 0 -12 9 -15 20 -3 11 -12
20 -21 20 -10 0 -16 8 -16 21 0 22 -22 49 -39 49 -6 0 -11 12 -11 26 0 26 -20
54 -39 54 -6 0 -11 14 -11 30 0 20 -5 30 -15 30 -8 0 -15 7 -15 15 0 11 -11
15 -43 15 -43 0 -43 -1 -39 -30z m1392 -505 c0 -8 -9 -15 -21 -15 -11 0 -17
-4 -14 -10 3 -5 -1 -10 -9 -10 -19 0 -20 4 -4 30 15 23 48 27 48 5z m-652
-297 c-2 -7 3 -12 10 -10 6 1 12 -7 12 -19 0 -18 -5 -20 -42 -17 -28 2 -42 7
-40 16 1 6 -5 12 -13 12 -8 0 -15 7 -15 15 0 11 12 15 45 15 31 0 44 -4 43
-12z m512 -118 c0 -20 -5 -30 -15 -30 -9 0 -15 -10 -15 -26 0 -29 -21 -54 -44
-54 -9 0 -16 7 -16 15 0 8 9 15 20 15 11 0 20 5 20 10 0 6 -9 10 -20 10 -11 0
-20 7 -20 15 0 8 9 15 19 15 12 0 25 12 33 30 7 17 19 30 25 30 8 0 13 -13 13
-30z m50 10 c0 -11 -7 -20 -15 -20 -8 0 -15 9 -15 20 0 11 7 20 15 20 8 0 15
-9 15 -20z m0 -54 c0 -8 -6 -17 -12 -20 -10 -5 -10 -7 0 -12 14 -7 16 -34 2
-34 -14 0 -12 -27 3 -34 10 -5 10 -7 0 -12 -15 -7 -17 -34 -3 -34 6 0 10 -7
10 -15 0 -8 -4 -15 -10 -15 -5 0 -10 -7 -10 -15 0 -8 -7 -15 -15 -15 -8 0 -15
-7 -15 -16 0 -9 -5 -14 -12 -12 -18 6 -21 28 -4 28 9 0 16 6 16 14 0 8 6 16
13 19 6 2 8 8 4 13 -4 5 -12 2 -17 -5 -4 -8 -15 -11 -25 -8 -19 8 -11 27 11
27 8 0 14 6 14 14 0 8 6 17 13 20 10 5 10 7 0 12 -7 3 -13 12 -13 19 0 7 6 16
13 19 10 5 10 7 0 12 -15 7 -17 34 -3 34 6 0 10 7 10 15 0 8 7 15 15 15 8 0
15 -6 15 -14z m-1160 -81 c0 -8 5 -15 10 -15 6 0 10 -7 10 -15 0 -18 -9 -19
-32 -1 -22 16 -24 46 -3 46 8 0 15 -7 15 -15z m1060 -30 c0 -8 -9 -15 -20 -15
-11 0 -20 7 -20 15 0 8 9 15 20 15 11 0 20 -7 20 -15z m-710 -35 c0 -20 -5
-30 -15 -30 -10 0 -15 10 -15 30 0 20 5 30 15 30 10 0 15 -10 15 -30z m50 0
c0 -16 -4 -30 -10 -30 -5 0 -10 14 -10 30 0 17 5 30 10 30 6 0 10 -13 10 -30z
m220 0 c0 -16 -4 -30 -10 -30 -5 0 -10 -7 -10 -15 0 -8 5 -15 10 -15 6 0 10
-7 10 -15 0 -8 -7 -15 -15 -15 -8 0 -15 7 -15 15 0 8 -4 15 -10 15 -5 0 -10 7
-10 15 0 8 5 15 10 15 6 0 10 14 10 30 0 20 5 30 15 30 10 0 15 -10 15 -30z
m-330 -60 c0 -25 -4 -30 -25 -30 -16 0 -25 6 -25 15 0 8 7 15 15 15 8 0 15 7
15 15 0 8 5 15 10 15 6 0 10 -13 10 -30z m790 16 c0 -8 -6 -17 -12 -20 -10 -5
-10 -7 0 -12 14 -7 16 -34 2 -34 -5 0 -10 -7 -10 -15 0 -8 -9 -15 -20 -15 -11
0 -20 -7 -20 -15 0 -8 9 -15 20 -15 11 0 20 7 20 15 0 8 5 15 10 15 6 0 10 7
10 15 0 8 7 15 15 15 8 0 15 -7 15 -15 0 -8 -7 -15 -15 -15 -8 0 -15 -5 -15
-11 0 -16 -26 -39 -44 -39 -10 0 -13 -6 -10 -15 4 -9 0 -15 -10 -15 -9 0 -16
-7 -16 -15 0 -8 -7 -15 -15 -15 -11 0 -15 11 -15 40 0 29 4 40 15 40 10 0 15
10 15 30 0 18 5 30 13 30 9 0 11 12 9 40 -4 39 -3 40 27 40 20 0 31 -5 31 -14z
m-404 -17 c10 -17 -13 -36 -27 -22 -12 12 -4 33 11 33 5 0 12 -5 16 -11z m322
-12 c2 -10 -3 -17 -12 -17 -10 0 -16 9 -16 21 0 24 23 21 28 -4z m-538 -2 c0
-8 -9 -15 -20 -15 -11 0 -20 7 -20 15 0 8 9 15 20 15 11 0 20 -7 20 -15z m328
3 c-7 -19 -38 -22 -38 -4 0 10 9 16 21 16 12 0 19 -5 17 -12z m-768 -52 c0 -8
-7 -16 -15 -20 -8 -3 -15 -10 -15 -16 0 -5 7 -10 15 -10 8 0 15 -4 15 -10 0
-5 7 -10 15 -10 8 0 15 5 15 10 0 6 8 10 18 10 16 -1 16 -1 0 -14 -10 -7 -18
-18 -18 -25 0 -6 -11 -11 -24 -11 -13 0 -26 -7 -30 -15 -3 -8 -10 -15 -16 -15
-5 0 -10 7 -10 15 0 8 5 15 10 15 6 0 10 7 10 15 0 8 -4 15 -10 15 -5 0 -10
11 -10 25 0 14 5 25 10 25 6 0 10 7 10 15 0 8 7 15 15 15 8 0 15 -6 15 -14z
m110 -7 c0 -24 -23 -21 -28 4 -2 10 3 17 12 17 10 0 16 -9 16 -21z m58 4 c-2
-10 -10 -18 -18 -18 -8 0 -16 8 -18 18 -2 12 3 17 18 17 15 0 20 -5 18 -17z
m102 -4 c0 -24 -23 -21 -28 4 -2 10 3 17 12 17 10 0 16 -9 16 -21z m220 1 c0
-11 -7 -20 -15 -20 -8 0 -15 9 -15 20 0 11 7 20 15 20 8 0 15 -9 15 -20z m110
0 c0 -11 -7 -20 -15 -20 -8 0 -15 9 -15 20 0 11 7 20 15 20 8 0 15 -9 15 -20z
m110 -1 c0 -24 -23 -21 -28 4 -2 10 3 17 12 17 10 0 16 -9 16 -21z m110 1 c0
-11 -7 -20 -15 -20 -8 0 -15 9 -15 20 0 11 7 20 15 20 8 0 15 -9 15 -20z m108
3 c-5 -25 -28 -28 -28 -4 0 12 6 21 16 21 9 0 14 -7 12 -17z m-1032 -78 c-3
-9 0 -15 9 -15 10 0 15 -10 15 -30 0 -28 2 -30 40 -30 29 0 40 4 40 15 0 11
11 15 43 15 l44 0 -2 -135 -1 -135 37 0 c24 0 39 5 43 16 3 8 10 12 16 9 5 -3
10 3 10 14 0 12 7 21 15 21 8 0 15 7 15 15 0 11 7 14 25 9 19 -5 25 -2 25 10
0 11 9 16 31 16 30 0 30 -1 28 -42 -3 -36 0 -43 14 -40 13 2 17 -4 17 -28 0
-20 -5 -30 -15 -30 -8 0 -15 -4 -15 -10 0 -5 -7 -10 -15 -10 -8 0 -15 6 -15
13 0 8 -7 14 -15 14 -8 0 -15 -6 -15 -14 0 -7 -11 -13 -25 -13 -16 0 -25 -6
-25 -15 0 -8 -7 -15 -15 -15 -8 0 -15 -7 -15 -15 0 -8 -5 -15 -11 -15 -13 0
-39 -25 -39 -39 0 -5 -12 -11 -27 -13 -16 -2 -27 -8 -25 -15 1 -7 -7 -13 -18
-13 -11 0 -20 -5 -20 -11 0 -19 -28 -39 -54 -39 -16 0 -26 -6 -26 -15 0 -8 -4
-15 -10 -15 -5 0 -10 -7 -10 -15 0 -10 -10 -15 -30 -15 -22 0 -28 -4 -24 -15
5 -11 -1 -15 -25 -15 -21 0 -31 5 -31 15 0 8 -4 15 -10 15 -5 0 -10 14 -10 30
0 20 -5 30 -15 30 -12 0 -15 16 -15 80 0 64 -3 80 -15 80 -9 0 -15 9 -15 25 0
16 -6 25 -15 25 -12 0 -15 14 -15 69 0 53 -4 70 -16 75 -27 10 -3 27 35 25 24
-2 35 1 34 9 -2 7 9 12 27 12 24 0 30 4 30 21 0 19 4 20 40 14 38 -6 40 -6 40
19 0 17 -5 26 -16 26 -10 0 -14 6 -10 15 4 11 -2 15 -24 15 -20 0 -30 5 -30
15 0 11 -11 15 -40 15 -29 0 -40 4 -40 15 0 12 15 15 71 15 59 0 70 -3 65 -15z
m1514 0 c0 -11 -11 -15 -40 -15 -29 0 -40 4 -40 15 0 11 11 15 40 15 29 0 40
-4 40 -15z m-510 -30 c0 -17 -17 -28 -30 -20 -7 4 -7 13 0 26 12 21 30 17 30
-6z m-1390 0 c0 -9 -9 -15 -25 -15 -16 0 -25 6 -25 15 0 9 9 15 25 15 16 0 25
-6 25 -15z m660 0 c0 -8 -7 -15 -15 -15 -8 0 -15 -7 -15 -15 0 -8 7 -15 15
-15 8 0 15 -4 15 -10 0 -5 -13 -10 -30 -10 -27 0 -30 3 -30 31 0 17 4 28 10
24 6 -3 10 1 10 9 0 9 9 16 20 16 11 0 20 -7 20 -15z m430 -15 c0 -20 -5 -30
-15 -30 -10 0 -15 10 -15 30 0 20 5 30 15 30 10 0 15 -10 15 -30z m514 -14
c-1 -11 6 -16 27 -16 16 0 29 -4 29 -10 0 -5 23 -10 50 -10 38 0 50 -4 50 -15
0 -10 7 -15 18 -13 14 3 17 -4 14 -39 -2 -33 1 -43 13 -43 8 0 15 -7 15 -15 0
-8 -7 -15 -15 -15 -8 0 -15 -4 -15 -10 0 -5 7 -10 15 -10 8 0 15 -6 15 -14 0
-8 -7 -16 -15 -20 -8 -3 -15 -10 -15 -16 0 -5 7 -10 15 -10 8 0 15 -7 15 -15
0 -8 7 -15 15 -15 8 0 15 -4 15 -10 0 -5 -7 -10 -15 -10 -8 0 -15 -7 -15 -15
0 -9 9 -15 22 -15 12 0 18 -3 15 -7 -4 -3 -2 -13 5 -20 8 -10 8 -17 2 -21 -6
-4 -13 -15 -17 -24 -9 -24 -27 -23 -27 2 0 11 7 20 15 20 8 0 15 5 15 10 0 6
-13 10 -30 10 -27 0 -30 3 -30 30 0 20 5 30 15 30 8 0 15 5 15 10 0 6 -13 10
-30 10 -30 0 -30 0 -30 60 0 33 -4 60 -10 60 -5 0 -10 11 -10 25 0 14 5 25 10
25 6 0 10 5 10 10 0 6 -22 10 -50 10 -43 0 -50 3 -50 20 0 19 -4 20 -55 14
-36 -5 -55 -3 -55 4 0 6 -3 17 -6 26 -4 12 0 16 15 16 15 0 21 6 21 21 0 12 5
19 13 16 6 -2 11 -12 11 -21z m384 1 c2 -12 -3 -17 -17 -17 -12 0 -21 6 -21
13 0 31 32 34 38 4z m-1678 -52 c0 -8 -9 -15 -20 -15 -11 0 -20 7 -20 15 0 8
9 15 20 15 11 0 20 -7 20 -15z m1188 3 c-2 -7 3 -12 10 -10 8 1 16 -7 19 -18
5 -17 13 -20 69 -20 49 0 64 -3 64 -14 0 -10 9 -14 28 -13 22 2 27 -2 27 -22
0 -14 6 -26 13 -29 7 -2 12 -24 12 -58 0 -30 5 -54 10 -54 6 0 10 -18 10 -40
0 -29 4 -40 15 -40 10 0 15 -10 15 -29 0 -16 7 -36 15 -45 8 -8 15 -19 15 -25
0 -6 -7 -11 -15 -11 -8 0 -15 7 -15 15 0 8 -7 15 -15 15 -8 0 -15 7 -15 15 0
8 -9 15 -20 15 -11 0 -20 7 -20 15 0 8 -7 15 -16 15 -18 0 -44 23 -44 39 0 6
-11 11 -25 11 -16 0 -25 6 -25 15 0 8 -7 15 -15 15 -8 0 -15 5 -15 10 0 6 -7
10 -15 10 -8 0 -15 7 -15 15 0 8 -4 15 -10 15 -5 0 -10 7 -10 15 0 10 -10 15
-30 15 -20 0 -30 5 -30 15 0 8 -7 15 -15 15 -8 0 -15 7 -15 16 0 8 -4 12 -10
9 -5 -3 -10 1 -10 9 0 9 -7 16 -15 16 -9 0 -15 9 -15 25 0 16 6 25 15 25 10 0
15 7 13 18 -2 13 3 16 25 14 19 -2 27 2 27 13 0 8 7 15 15 15 8 0 14 -6 13
-12z m-1248 -28 c0 -15 -7 -20 -24 -20 -14 0 -28 5 -31 10 -10 16 4 30 31 30
17 0 24 -5 24 -20z m405 -1 c0 -7 -8 -15 -17 -17 -18 -3 -25 18 -11 32 10 10
28 1 28 -15z m55 1 c0 -11 -7 -20 -15 -20 -8 0 -15 9 -15 20 0 11 7 20 15 20
8 0 15 -9 15 -20z m110 0 c0 -11 -7 -20 -15 -20 -8 0 -15 9 -15 20 0 11 7 20
15 20 8 0 15 -9 15 -20z m110 0 c0 -13 -7 -20 -20 -20 -13 0 -20 7 -20 20 0
13 7 20 20 20 13 0 20 -7 20 -20z m50 0 c0 -11 -7 -20 -15 -20 -8 0 -15 9 -15
20 0 11 7 20 15 20 8 0 15 -9 15 -20z m60 0 c0 -13 -7 -20 -20 -20 -13 0 -20
7 -20 20 0 13 7 20 20 20 13 0 20 -7 20 -20z m-382 -57 c2 -8 -5 -13 -17 -13
-12 0 -21 6 -21 16 0 18 31 15 38 -3z m272 2 c0 -8 -9 -15 -20 -15 -11 0 -20
7 -20 15 0 8 9 15 20 15 11 0 20 -7 20 -15z m0 -50 c0 -8 -9 -15 -20 -15 -20
0 -26 11 -13 23 12 13 33 7 33 -8z m50 1 c0 -8 -7 -16 -15 -20 -8 -3 -15 -12
-15 -21 0 -8 -4 -15 -10 -15 -5 0 -10 -11 -10 -25 0 -21 -5 -25 -30 -25 -20 0
-30 5 -30 15 0 8 5 15 10 15 6 0 10 7 10 15 0 8 9 15 20 15 11 0 20 7 20 15 0
8 5 15 10 15 6 0 10 7 10 15 0 8 7 15 15 15 8 0 15 -6 15 -14z m-352 -33 c-5
-25 -28 -28 -28 -4 0 12 6 21 16 21 9 0 14 -7 12 -17z m162 -108 c0 -8 7 -15
15 -15 8 0 15 7 15 15 0 8 7 15 15 15 8 0 15 -7 15 -15 0 -8 5 -15 10 -15 6 0
10 -5 10 -11 0 -14 -25 -39 -39 -39 -6 0 -11 -6 -11 -13 0 -14 -35 -47 -50
-47 -6 0 -10 7 -10 15 0 8 -4 15 -10 15 -5 0 -10 -7 -10 -15 0 -8 -7 -15 -15
-15 -8 0 -15 7 -15 15 0 8 -7 15 -15 15 -8 0 -15 -7 -15 -15 0 -8 7 -15 15
-15 8 0 15 -7 15 -15 0 -8 -7 -15 -15 -15 -8 0 -15 -4 -15 -10 0 -5 7 -10 15
-10 8 0 15 -7 15 -15 0 -8 -7 -15 -15 -15 -8 0 -15 -7 -15 -15 0 -8 -7 -15
-15 -15 -8 0 -15 7 -15 15 0 8 -4 15 -10 15 -5 0 -10 -7 -10 -15 0 -8 -7 -15
-15 -15 -8 0 -15 7 -15 15 0 8 7 15 15 15 8 0 15 5 15 11 0 14 25 39 39 39 6
0 11 7 11 15 0 8 -7 15 -15 15 -8 0 -15 7 -15 15 0 8 7 15 15 15 8 0 15 7 15
15 0 8 7 15 15 15 8 0 15 5 15 10 0 6 7 10 15 10 8 0 15 7 15 15 0 8 5 15 10
15 6 0 10 7 10 15 0 8 7 15 15 15 8 0 15 -7 15 -15z m930 -108 c0 -7 9 -19 20
-27 20 -15 27 -40 11 -40 -5 0 -11 6 -14 13 -2 7 -8 8 -13 3 -5 -5 -4 -11 4
-13 14 -5 16 -33 2 -33 -5 0 -10 -7 -10 -15 0 -8 -9 -15 -20 -15 -11 0 -20 7
-20 15 0 9 -9 15 -25 15 -20 0 -25 5 -25 25 0 14 5 25 11 25 14 0 39 -25 39
-39 0 -6 9 -11 20 -11 11 0 20 7 20 15 0 8 -7 15 -16 15 -18 0 -44 23 -44 39
0 6 5 11 10 11 6 0 10 7 10 15 0 8 9 15 20 15 11 0 20 -6 20 -13z m-960 -28
c0 -6 -6 -17 -14 -25 -14 -14 -36 -19 -36 -9 0 8 34 43 43 44 4 1 7 -4 7 -10z
m1040 -54 c0 -8 5 -15 10 -15 6 0 10 -7 10 -15 0 -8 -7 -15 -15 -15 -8 0 -15
7 -15 15 0 8 -7 15 -15 15 -8 0 -15 7 -15 15 0 8 9 15 20 15 11 0 20 -7 20
-15z m100 0 c0 -8 7 -15 15 -15 8 0 15 -7 15 -15 0 -8 -7 -15 -15 -15 -26 0
-16 -25 15 -37 31 -12 42 -43 15 -43 -8 0 -15 7 -15 15 0 8 -7 15 -15 15 -8 0
-15 -7 -15 -15 0 -8 -7 -15 -15 -15 -8 0 -15 7 -15 15 0 8 7 15 15 15 8 0 15
5 15 10 0 6 -7 10 -15 10 -8 0 -15 7 -15 15 0 8 -4 15 -10 15 -5 0 -10 7 -10
15 0 8 5 15 10 15 6 0 10 7 10 15 0 8 7 15 15 15 8 0 15 -7 15 -15z m-1250
-56 c0 -14 -25 -39 -39 -39 -15 0 -14 7 7 29 19 22 32 26 32 10z"/>
<path d="M850 1135 c0 -31 34 -72 45 -55 4 6 -1 17 -11 24 -11 8 -15 21 -11
35 3 14 1 21 -9 21 -8 0 -14 -10 -14 -25z"/>
<path d="M900 1050 c0 -20 5 -30 15 -30 8 0 15 -4 15 -10 0 -5 5 -10 10 -10 6
0 10 11 10 25 0 14 -4 25 -10 25 -5 0 -10 7 -10 15 0 8 -7 15 -15 15 -10 0
-15 -10 -15 -30z"/>
<path d="M1170 849 c0 -6 -6 -17 -14 -25 -8 -8 -19 -14 -25 -14 -6 0 -11 -7
-11 -15 0 -8 7 -15 15 -15 8 0 15 5 15 11 0 6 6 17 14 25 17 16 36 19 36 4 0
-5 -7 -10 -15 -10 -8 0 -15 -7 -15 -15 0 -8 7 -15 15 -15 8 0 15 7 15 15 0 8
7 15 15 15 8 0 15 5 15 10 0 6 7 10 15 10 8 0 15 7 15 15 0 8 -7 15 -15 15 -8
0 -15 -7 -15 -15 0 -8 -7 -15 -15 -15 -8 0 -15 7 -15 15 0 8 -7 15 -15 15 -8
0 -15 -5 -15 -11z"/>
<path d="M2230 2335 c0 -8 -7 -15 -15 -15 -8 0 -15 -4 -15 -10 0 -5 -5 -10
-11 -10 -16 0 -39 -26 -39 -44 0 -9 -8 -16 -17 -16 -17 -1 -17 -1 0 -14 9 -7
17 -18 17 -25 0 -6 5 -11 10 -11 6 0 10 7 10 15 0 8 7 15 15 15 8 0 15 5 15
10 0 6 -7 10 -15 10 -8 0 -15 9 -15 20 0 11 7 20 15 20 8 0 15 5 15 10 0 6 7
10 15 10 8 0 15 5 15 10 0 6 7 10 15 10 8 0 15 7 15 15 0 8 -7 15 -15 15 -8 0
-15 -7 -15 -15z"/>
<path d="M1010 2260 c0 -11 7 -20 15 -20 8 0 15 9 15 20 0 11 -7 20 -15 20 -8
0 -15 -9 -15 -20z"/>
<path d="M2092 2203 c2 -10 10 -18 18 -18 8 0 16 8 18 18 2 12 -3 17 -18 17
-15 0 -20 -5 -18 -17z"/>
<path d="M325 1075 c0 -24 2 -25 73 -25 70 0 72 -1 72 -25 0 -16 6 -25 16 -25
12 0 15 -6 10 -25 -5 -18 -2 -27 9 -31 8 -4 15 -17 15 -30 0 -15 6 -24 15 -24
12 0 15 -13 15 -60 0 -49 3 -58 15 -54 11 5 15 21 15 60 0 41 -4 54 -15 54
-11 0 -15 11 -15 40 0 29 -4 40 -15 40 -9 0 -15 9 -15 25 0 14 -4 25 -10 25
-5 0 -10 14 -10 30 0 29 -2 30 -45 30 -25 0 -45 5 -45 10 0 6 -19 10 -42 10
-39 0 -43 -2 -43 -25z"/>
<path d="M1843 815 c-16 -17 -17 -35 -3 -35 6 0 10 -7 10 -15 0 -8 -4 -15 -10
-15 -5 0 -10 -7 -10 -15 0 -8 -7 -15 -15 -15 -8 0 -15 7 -15 15 0 8 7 15 15
15 8 0 15 5 15 10 0 6 -7 13 -15 16 -8 4 -15 12 -15 20 0 8 -9 14 -19 14 -14
0 -18 -5 -14 -19 3 -12 11 -17 19 -14 8 3 14 -1 14 -11 0 -9 -7 -16 -15 -16
-8 0 -15 -4 -15 -10 0 -5 -7 -10 -15 -10 -8 0 -15 -7 -15 -15 0 -8 7 -15 15
-15 8 0 15 5 15 10 0 6 7 10 15 10 8 0 15 -4 15 -10 0 -5 -7 -10 -15 -10 -8 0
-15 -7 -15 -15 0 -8 7 -15 15 -15 8 0 15 -7 15 -15 0 -8 -7 -15 -15 -15 -8 0
-15 -7 -15 -15 0 -8 7 -15 15 -15 8 0 15 -4 15 -10 0 -5 -7 -10 -15 -10 -8 0
-15 -7 -15 -15 0 -8 7 -15 15 -15 8 0 15 6 15 13 0 7 9 18 20 25 16 10 24 10
40 0 23 -15 27 -38 5 -38 -8 0 -15 7 -15 15 0 8 -4 15 -10 15 -5 0 -10 -7 -10
-15 0 -8 -7 -15 -15 -15 -8 0 -15 -7 -15 -15 0 -20 17 -19 30 3 8 12 13 13 16
5 3 -7 12 -13 20 -13 10 0 14 -13 14 -45 0 -33 -4 -45 -15 -45 -8 0 -15 -7
-15 -15 0 -8 -4 -15 -10 -15 -5 0 -10 7 -10 15 0 8 5 15 10 15 14 0 12 27 -2
34 -10 5 -10 7 0 12 14 7 16 34 2 34 -5 0 -10 -7 -10 -15 0 -22 -27 -18 -33 5
-3 11 -10 20 -16 20 -6 0 -11 -9 -11 -20 0 -11 7 -20 15 -20 8 0 15 -4 15 -10
0 -5 -7 -10 -15 -10 -8 0 -15 -7 -15 -15 0 -8 -7 -15 -15 -15 -18 0 -20 -29
-2 -31 6 -1 44 -3 82 -4 l70 -2 0 99 c0 72 -3 98 -12 98 -9 0 -13 21 -13 70
l0 70 30 0 c20 0 30 -5 30 -15 0 -8 5 -15 10 -15 6 0 10 7 10 15 0 8 -4 15
-10 15 -5 0 -10 7 -10 15 0 9 -9 15 -21 15 -15 0 -19 5 -15 15 3 9 0 15 -9 15
-8 0 -15 5 -15 10 0 15 -23 12 -37 -5z m-1 -113 c-15 -5 -16 -32 -2 -32 6 0
10 -7 10 -15 0 -8 -4 -15 -10 -15 -5 0 -10 -7 -10 -15 0 -8 -7 -15 -15 -15 -8
0 -15 7 -15 15 0 8 7 15 15 15 8 0 15 7 15 15 0 8 -7 15 -15 15 -8 0 -15 7
-15 15 0 8 6 15 14 15 8 0 17 8 21 18 6 14 8 14 13 3 3 -8 0 -17 -6 -19z m-12
-237 c0 -8 -7 -15 -15 -15 -8 0 -15 -7 -15 -15 0 -8 -7 -15 -15 -15 -8 0 -15
7 -15 15 0 8 7 15 15 15 8 0 15 7 15 15 0 8 7 15 15 15 8 0 15 -7 15 -15z"/>
<path d="M580 740 c0 -30 4 -40 16 -40 12 0 14 -7 9 -30 -5 -24 -3 -30 10 -30
14 0 16 -8 13 -40 -3 -33 0 -40 14 -40 13 0 18 -8 18 -30 0 -16 5 -30 10 -30
6 0 10 -18 10 -40 0 -28 4 -40 14 -40 8 0 21 -3 30 -6 12 -4 16 0 16 15 0 12
-4 21 -10 21 -5 0 -10 11 -10 25 0 16 -6 25 -15 25 -11 0 -15 12 -15 45 0 33
-4 45 -15 45 -9 0 -15 9 -15 25 0 16 -6 25 -15 25 -10 0 -15 10 -15 30 0 17
-4 30 -10 30 -5 0 -10 18 -10 40 0 29 -4 40 -15 40 -11 0 -15 -11 -15 -40z"/>
<path d="M900 625 c0 -8 6 -15 14 -15 8 0 16 -6 19 -12 2 -8 8 -9 13 -4 5 5 4
11 -3 13 -7 3 -13 11 -13 19 0 8 -7 14 -15 14 -8 0 -15 -7 -15 -15z"/>
<path d="M605 420 c-4 -6 7 -10 24 -10 17 0 31 5 31 10 0 6 -11 10 -24 10 -14
0 -28 -4 -31 -10z"/>
</g>
</svg>
